<?xml version="1.0" encoding="UTF-8"?>
<svg width="373px" height="205px" viewBox="0 0 373 205" version="1.1" xmlns="http://www.w3.org/2000/svg" xmlns:xlink="http://www.w3.org/1999/xlink">
    <!-- Generator: Sketch 41.2 (35397) - http://www.bohemiancoding.com/sketch -->
    <title>pre</title>
    <desc>Created with Sketch.</desc>
    <defs></defs>
    <g id="Page-1" stroke="none" stroke-width="1" fill="none" fill-rule="evenodd">
        <g id="s00_splash_screen-copy" transform="translate(-2.000000, -207.000000)">
            <g id="pre" transform="translate(2.000000, 207.000000)">
                <g id="Group-3">
                    <g id="Group-2">
                        <polygon id="Path-2" fill="#FFFFFF" points="231.571014 42.663178 0.0865971591 204.36607 231.571013 204.36607 271.14418 82.5518716"></polygon>
                        <g id="Group" transform="translate(218.274632, 0.000000)">
                            <g id="flaticon1478577630-svg">
                                <g id="Layer_1">
                                    <path d="M94.3321373,0 C87.4963495,0 81.3589799,3.84438782 78.6967422,9.79419176 L76.9572491,13.6808336 L85.1813937,16.9679054 L86.9205013,13.0816278 C88.1832045,10.2608073 91.0921242,8.43878461 94.3321373,8.43878461 C98.35922,8.43878461 101.786943,11.2781823 102.30536,15.0424332 L111.160471,13.952935 C110.064663,5.99897888 102.829945,0 94.3321373,0 L94.3321373,0 Z" id="Shape" fill="#181818"></path>
                                    <path d="M88.1668014,14.3372482 C80.2966641,6.5328542 67.5437992,6.5328542 59.6938248,14.3372482 L47.02943,26.9176848 L75.4678415,55.1456926 L88.1663899,42.5685219 C96.0229481,34.7812741 96.0229481,22.1249042 88.1668014,14.3372482 L88.1668014,14.3372482 Z" id="Shape" fill="#FF8C00"></path>
                                    <path d="M78.1781385,47.7015237 L50.2622772,20.0033449 C33.3278524,13.6973975 13.5620741,17.2004791 0,30.6636086 L67.4276351,97.5654561 C80.9957651,84.1087358 84.5267814,64.5006925 78.1781385,47.7015237 L78.1781385,47.7015237 Z" id="Shape" fill="#FF9E24"></path>
                                    <path d="M119.896227,11.497803 C119.463351,10.3563836 118.57618,9.42688005 117.429119,8.91290529 C116.282057,8.40011662 114.970659,8.34437013 113.781175,8.76029432 L99.8908185,13.6134022 C97.4150606,14.4784612 96.1382598,17.1064537 97.0390222,19.482994 L126.166967,96.3044294 L94.34662,180.227019 C93.8194249,181.617123 94.0245367,183.166164 94.89688,184.385866 C95.7696351,185.605568 97.2021232,186.3449 98.7429334,186.372181 L114.369327,186.646169 C114.398982,186.646564 114.427813,186.646959 114.457056,186.646959 C116.459162,186.646959 118.252861,185.445049 118.939862,183.633486 L149.638684,102.669018 L149.639095,89.942608 L119.896227,11.497803 L119.896227,11.497803 Z M112.547362,178.163007 L106.885068,178.064527 L136.075629,101.807432 L141.08829,103.60288 L112.547362,178.163007 L112.547362,178.163007 Z M132.143187,89.0815034 L106.885068,18.6989532 L111.574382,16.9679054 L136.812887,87.2943586 L132.143187,89.0815034 L132.143187,89.0815034 Z" id="Shape" fill="#FFB14D"></path>
                                    <path d="M123.986679,99.6878963 C123.986679,107.893705 130.677583,114.533361 138.947244,114.533361 C147.216905,114.533361 153.914498,107.89412 153.914498,99.6878963 C153.914498,91.4986825 147.216905,84.839527 138.947244,84.839527 C130.677583,84.839527 123.986679,91.4986825 123.986679,99.6878963 L123.986679,99.6878963 Z" id="Shape" fill="#FF8C00"></path>
                                    <path d="M72.6820309,161.195101 C70.3205662,161.195101 68.4064436,163.391132 68.4064436,166.099443 L68.4064436,186.646959 L76.9572491,186.646959 L76.9572491,166.099443 C76.9576182,163.391132 75.0434956,161.195101 72.6820309,161.195101 L72.6820309,161.195101 Z" id="Shape" fill="#181818"></path>
                                    <polygon id="Shape" fill="#FF8C00" points="44.4782919 173.92103 25.6524164 199.372889 141.08829 199.372889 141.08829 173.92103"></polygon>
                                    <path d="M136.444492,203.614865 L21.7454088,203.614865 C19.1805764,203.614865 17.1016109,201.715423 17.1016109,199.372889 C17.1016109,197.030354 19.1805764,195.130912 21.7454088,195.130912 L136.444492,195.130912 C139.009324,195.130912 141.08829,197.030354 141.08829,199.372889 C141.08829,201.715423 139.009324,203.614865 136.444492,203.614865 L136.444492,203.614865 Z" id="Shape" fill="#3D3D3B"></path>
                                </g>
                            </g>
                        </g>
                    </g>
                </g>
                <text id="Honki-de-Nihongo---P" font-family="Helvetica-Bold, Helvetica" font-size="17" font-weight="bold" fill="#FF9E24">
                    <tspan x="31.4990234" y="198">Honki de Nihongo - Pre</tspan>
                </text>
            </g>
        </g>
    </g>
</svg>